{
	"asset":{
		"generator":"Khronos glTF Blender I/O v4.1.63",
		"version":"2.0"
	},
	"scene":0,
	"scenes":[
		{
			"name":"Scene",
			"nodes":[
				0,
				1,
				2,
				3,
				4
			]
		}
	],
	"nodes":[
		{
			"mesh":0,
			"name":"Bottle.000",
			"scale":[
				0.20732839405536652,
				0.20732839405536652,
				0.20732839405536652
			],
			"translation":[
				0,
				0.6935344934463501,
				0
			]
		},
		{
			"mesh":1,
			"name":"sucker-glass",
			"scale":[
				0.20732839405536652,
				0.20732839405536652,
				0.20732839405536652
			],
			"translation":[
				0,
				0.6935344934463501,
				0
			]
		},
		{
			"mesh":2,
			"name":"rubber",
			"scale":[
				0.20732839405536652,
				0.20732839405536652,
				0.20732839405536652
			],
			"translation":[
				0,
				0.6935344934463501,
				0
			]
		},
		{
			"mesh":3,
			"name":"liquid",
			"scale":[
				0.20600000023841858,
				0.20732839405536652,
				0.20600000023841858
			],
			"translation":[
				0,
				0.699999988079071,
				0
			]
		},
		{
			"mesh":4,
			"name":"sucker",
			"scale":[
				0.20732839405536652,
				0.20732839405536652,
				0.20732839405536652
			],
			"translation":[
				0,
				0.6935344934463501,
				0
			]
		}
	],
	"materials":[
		{
			"doubleSided":true,
			"name":"Material.001",
			"pbrMetallicRoughness":{
				"baseColorFactor":[
					0.7241640090942383,
					0.7563491463661194,
					0.8046267032623291,
					1
				],
				"metallicFactor":0.10000000149011612,
				"roughnessFactor":0.10000000149011612
			}
		},
		{
			"doubleSided":true,
			"name":"Material.007",
			"pbrMetallicRoughness":{
				"baseColorFactor":[
					0.800000011920929,
					0.800000011920929,
					0.800000011920929,
					1
				],
				"metallicFactor":0,
				"roughnessFactor":0.5
			}
		},
		{
			"doubleSided":true,
			"name":"Material.010",
			"pbrMetallicRoughness":{
				"metallicFactor":0,
				"roughnessFactor":0.5
			}
		},
		{
			"doubleSided":true,
			"name":"Material.008",
			"pbrMetallicRoughness":{
				"baseColorFactor":[
					0.09085359424352646,
					0.04405132308602333,
					0.019260413944721222,
					1
				],
				"metallicFactor":0,
				"roughnessFactor":0.5
			}
		},
		{
			"doubleSided":true,
			"name":"Material.009",
			"pbrMetallicRoughness":{
				"baseColorFactor":[
					0.2228020280599594,
					0.2228020280599594,
					0.2228020280599594,
					1
				],
				"metallicFactor":0.5979381203651428,
				"roughnessFactor":0.30756014585494995
			}
		}
	],
	"meshes":[
		{
			"name":"Cylinder.005",
			"primitives":[
				{
					"attributes":{
						"POSITION":0,
						"NORMAL":1
					},
					"indices":2,
					"material":0
				}
			]
		},
		{
			"name":"Cylinder.003",
			"primitives":[
				{
					"attributes":{
						"POSITION":3,
						"NORMAL":4
					},
					"indices":5,
					"material":1
				}
			]
		},
		{
			"name":"Cylinder.002",
			"primitives":[
				{
					"attributes":{
						"POSITION":6,
						"NORMAL":7
					},
					"indices":8,
					"material":2
				}
			]
		},
		{
			"name":"Cylinder.000",
			"primitives":[
				{
					"attributes":{
						"POSITION":9,
						"NORMAL":10
					},
					"indices":11,
					"material":3
				}
			]
		},
		{
			"name":"Cylinder.028",
			"primitives":[
				{
					"attributes":{
						"POSITION":12,
						"NORMAL":13
					},
					"indices":14,
					"material":4
				}
			]
		}
	],
	"accessors":[
		{
			"bufferView":0,
			"componentType":5126,
			"count":2561,
			"max":[
				1.4343862533569336,
				2.7210617065429688,
				1.4343862533569336
			],
			"min":[
				-1.4343862533569336,
				-3.349606513977051,
				-1.4343863725662231
			],
			"type":"VEC3"
		},
		{
			"bufferView":1,
			"componentType":5126,
			"count":2561,
			"type":"VEC3"
		},
		{
			"bufferView":2,
			"componentType":5123,
			"count":15168,
			"type":"SCALAR"
		},
		{
			"bufferView":3,
			"componentType":5126,
			"count":800,
			"max":[
				0.23511947691440582,
				2.8288018703460693,
				0.23560857772827148
			],
			"min":[
				-0.23482467234134674,
				-2.6928300857543945,
				-0.23433566093444824
			],
			"type":"VEC3"
		},
		{
			"bufferView":4,
			"componentType":5126,
			"count":800,
			"type":"VEC3"
		},
		{
			"bufferView":5,
			"componentType":5123,
			"count":4608,
			"type":"SCALAR"
		},
		{
			"bufferView":6,
			"componentType":5126,
			"count":1409,
			"max":[
				0.5127823948860168,
				5.702796459197998,
				0.5127825736999512
			],
			"min":[
				-0.5127828121185303,
				3.6840615272521973,
				-0.5127826929092407
			],
			"type":"VEC3"
		},
		{
			"bufferView":7,
			"componentType":5126,
			"count":1409,
			"type":"VEC3"
		},
		{
			"bufferView":8,
			"componentType":5123,
			"count":8256,
			"type":"SCALAR"
		},
		{
			"bufferView":9,
			"componentType":5126,
			"count":1537,
			"max":[
				1.319035291671753,
				1.116542935371399,
				1.319035530090332
			],
			"min":[
				-1.319035291671753,
				-3.2350082397460938,
				-1.319035530090332
			],
			"type":"VEC3"
		},
		{
			"bufferView":10,
			"componentType":5126,
			"count":1537,
			"type":"VEC3"
		},
		{
			"bufferView":11,
			"componentType":5123,
			"count":9024,
			"type":"SCALAR"
		},
		{
			"bufferView":12,
			"componentType":5126,
			"count":7774,
			"max":[
				0.8165399432182312,
				3.7791805267333984,
				0.8165398836135864
			],
			"min":[
				-0.8165401816368103,
				2.666656017303467,
				-0.8165398836135864
			],
			"type":"VEC3"
		},
		{
			"bufferView":13,
			"componentType":5126,
			"count":7774,
			"type":"VEC3"
		},
		{
			"bufferView":14,
			"componentType":5123,
			"count":19584,
			"type":"SCALAR"
		}
	],
	"bufferViews":[
		{
			"buffer":0,
			"byteLength":30732,
			"byteOffset":0,
			"target":34962
		},
		{
			"buffer":0,
			"byteLength":30732,
			"byteOffset":30732,
			"target":34962
		},
		{
			"buffer":0,
			"byteLength":30336,
			"byteOffset":61464,
			"target":34963
		},
		{
			"buffer":0,
			"byteLength":9600,
			"byteOffset":91800,
			"target":34962
		},
		{
			"buffer":0,
			"byteLength":9600,
			"byteOffset":101400,
			"target":34962
		},
		{
			"buffer":0,
			"byteLength":9216,
			"byteOffset":111000,
			"target":34963
		},
		{
			"buffer":0,
			"byteLength":16908,
			"byteOffset":120216,
			"target":34962
		},
		{
			"buffer":0,
			"byteLength":16908,
			"byteOffset":137124,
			"target":34962
		},
		{
			"buffer":0,
			"byteLength":16512,
			"byteOffset":154032,
			"target":34963
		},
		{
			"buffer":0,
			"byteLength":18444,
			"byteOffset":170544,
			"target":34962
		},
		{
			"buffer":0,
			"byteLength":18444,
			"byteOffset":188988,
			"target":34962
		},
		{
			"buffer":0,
			"byteLength":18048,
			"byteOffset":207432,
			"target":34963
		},
		{
			"buffer":0,
			"byteLength":93288,
			"byteOffset":225480,
			"target":34962
		},
		{
			"buffer":0,
			"byteLength":93288,
			"byteOffset":318768,
			"target":34962
		},
		{
			"buffer":0,
			"byteLength":39168,
			"byteOffset":412056,
			"target":34963
		}
	],
	"buffers":[
		{
			"byteLength":451224,
			"uri":"cube6.bin"
		}
	]
}
